<svg width="311" height="456" viewBox="0 0 311 456" fill="none" xmlns="http://www.w3.org/2000/svg">
<rect x="16" y="25" width="281" height="413" fill="#6AC56A"/>
<path fill-rule="evenodd" clip-rule="evenodd" d="M310.801 302.402C301.883 205.121 312.254 104.652 304.5 12.6016C244.613 7.6407 189.03 4.4727 136.5 8.4024C137.008 5.4102 139.957 4.8594 140.7 2.1016C135.414 6.0821 128.583 8.2969 126.001 0H113.399C119.856 6.2031 92.3636 10.273 105 0H100.801C94.9299 6.8516 83.11 0.339839 75.602 8.3984C77.2661 -8.3046 52.711 12.3867 52.5 0H29.398C22.6949 5.2578 0.734 3.875 0 21V35.699C3.9102 43.6873 5.24221 54.265 8.39841 63C4.12111 61.8281 4.2773 56.6836 0 60.8984V63C1.9414 145.484 5.62501 233.52 6.30081 325.5C6.55472 359.957 0.351604 397.898 4.1992 430.5C5.4609 441.141 6.05471 451.012 16.8012 455.699H18.9028C36.6918 451.203 40.2898 440.472 54.6018 441C67.6288 441.488 74.0278 452.742 86.1018 453.602C100.086 454.59 110.008 445.664 121.801 436.801C133.446 439.695 142.899 451.196 155.403 451.5C166.637 451.77 179.274 436.941 195.313 436.801C206.2 436.703 219.305 449.778 231.012 449.391C242.774 449.016 251.489 434.989 262.512 434.692C277.012 434.29 286.766 452.165 302.41 449.391C317.277 414.996 302.129 348.861 310.808 304.491C310.8 303.807 310.8 303.1 310.8 302.401L310.801 302.402ZM289.813 424.202C270.352 409.194 248.278 415.705 228.915 426.303C217.899 421.209 208.415 414.596 197.407 409.502C178.114 410.737 171.665 426.295 153.305 417.901C154.688 420.717 157.794 421.803 161.704 422.092C158.598 429.897 149.778 418.287 144.903 420.002C144.528 411.944 146.617 419.233 151.203 417.901C142.723 410.322 125.574 400.479 113.402 411.592C114.688 409.729 115.942 407.838 113.402 407.401C105.719 412.319 97.7934 416.998 92.4024 424.202C75.6564 410.831 60.0544 399.858 33.6014 411.6C35.1678 405.143 27.8358 407.564 29.4022 401.108C34.0584 399.943 32.3944 405.115 35.703 405.299C32.5897 358.514 39.4061 319.768 31.5038 287.709C37.0077 205.084 30.3827 121.369 33.6054 33.599C120.8 35.4193 191.465 28.2357 289.805 29.3998C287.887 161.36 290.739 285.11 289.813 424.2L289.813 424.202Z" fill="black"/>
<path fill-rule="evenodd" clip-rule="evenodd" d="M111.311 239.402C111.784 241.038 111.362 243.55 113.413 243.601C125.034 239.82 150.55 249.331 151.214 264.593C177.831 270.046 175.593 243.761 189.015 230.991C189.249 233.553 189.644 235.959 193.214 235.19C226.499 192.413 206.89 144.139 144.913 142.792C138.718 131.522 138.132 128.687 140.714 111.292C156.507 94.9719 194.659 116.593 207.913 92.3939C208.456 86.2416 203.171 85.9447 203.721 79.7919C190.764 75.6278 182.151 80.1591 168.022 77.6903C167.995 72.1161 168.819 65.6943 165.921 62.9913C156.487 59.2999 145.655 66.3429 149.12 81.8893C97.0848 94.2873 107.233 155.065 144.921 167.991C167.882 175.859 185.038 170.347 184.819 195.292C184.338 247.679 107.331 191.66 111.319 237.292C111.319 236.128 109.612 234.913 109.217 237.292C110.487 237.425 111.694 237.617 111.311 239.402L111.311 239.402Z" fill="black"/>
<path fill-rule="evenodd" clip-rule="evenodd" d="M180.601 291.902C157.097 293.659 131.953 287.824 115.511 289.8C104.327 291.148 86.5312 286.878 79.8122 300.3C88.9567 316.663 119.003 312.507 126.011 315.007C123.726 315.507 120.972 318.464 123.91 319.198C154.195 313.863 202.273 321.839 241.5 308.698C244.922 301.82 241.027 300.675 241.5 291.897C224.082 276.877 208.586 289.819 180.602 291.901L180.601 291.902Z" fill="black"/>
<path fill-rule="evenodd" clip-rule="evenodd" d="M180.601 344.402C157.097 346.159 131.953 340.324 115.511 342.3C104.327 343.648 86.5312 339.378 79.8122 352.8C88.9567 369.163 119.003 365.007 126.011 367.507C123.726 368.007 120.972 370.964 123.91 371.698C154.195 366.363 202.273 374.339 241.5 361.198C244.922 354.32 241.027 353.175 241.5 344.397C224.082 329.377 208.586 342.319 180.602 344.401L180.601 344.402Z" fill="black"/>
</svg>
